<?xml version="1.0" encoding="UTF-8" standalone="no"?>
<svg
   viewBox="0 0 256 256"
   width="50"
   height="50"
   fill-rule="nonzero"
   version="1.1"
   id="svg2"
   xmlns="http://www.w3.org/2000/svg"
   xmlns:svg="http://www.w3.org/2000/svg">
  <defs
     id="defs2" />
  <g
     fill="#ffffff"
     fill-rule="nonzero"
     stroke="none"
     stroke-width="1"
     stroke-linecap="butt"
     stroke-linejoin="miter"
     stroke-miterlimit="10"
     stroke-dasharray="none"
     stroke-dashoffset="0"
     font-family="none"
     font-weight="none"
     font-size="none"
     text-anchor="none"
     style="mix-blend-mode:normal"
     id="g2">
    <g
       transform="scale(5.12)"
       id="g1">
      <path
         d="M 25,3 C 13.59,3 4.20938,11.68078 3.10938,22.80078 L 14.30079,28.5293 C 15.43079,27.5793 16.90001,27 18.50001,27 h 0.05078 c 0.39,-0.6 0.83859,-1.35086 1.30859,-2.13086 0.98,-1.61 2.08016,-3.43008 3.16016,-4.83008 0.24,-4.47 3.95047,-8.03906 8.48047,-8.03906 4.69,0 8.5,3.81 8.5,8.5 0,4.53 -3.56906,8.24047 -8.03906,8.48047 -1.4,1.08 -3.21008,2.18039 -4.83008,3.15039 -0.78,0.48 -1.53086,0.92836 -2.13086,1.31836 V 33.5 c 0,3.59 -2.91,6.5 -6.5,6.5 -3.59,0 -6.5,-2.91 -6.5,-6.5 0,-0.17 0.0095,-0.33 0.01953,-0.5 L 3.27931,28.51953 C 4.96931,38.99953 14.05001,47 25.00001,47 c 12.15,0 22,-9.85 22,-22 0,-12.15 -9.85,-22 -22,-22 z m 6.5,11 C 27.92,14 25,16.92 25,20.5 25,24.08 27.92,27 31.5,27 35.08,27 38,24.08 38,20.5 38,16.92 35.08,14 31.5,14 Z m 0,2 C 33.99,16 36,18.01 36,20.5 36,22.99 33.99,25 31.5,25 29.01,25 27,22.99 27,20.5 27,18.01 29.01,16 31.5,16 Z m -13,13 c -0.79,0 -1.53969,0.20031 -2.17969,0.57031 l 3.32031,1.69922 c 1.23,0.63 1.70984,2.14109 1.08984,3.37109 -0.45,0.86 -1.32047,1.35938 -2.23047,1.35938 -0.39,0 -0.77062,-0.08953 -1.14062,-0.26953 l -3.33008,-1.71094 c 0.26,2.24 2.1607,3.98047 4.4707,3.98047 2.49,0 4.5,-2.01 4.5,-4.5 0,-2.49 -2.01,-4.5 -4.5,-4.5 z"
         id="path1" />
    </g>
  </g>
</svg>
